<?xml version="1.0" encoding="UTF-8"?>
<svg xmlns="http://www.w3.org/2000/svg" width="720" height="960" viewBox="0 0 720 960">
  <rect width="720" height="960" fill="#ffffff"/>
  <rect x="20" y="20" width="680" height="920" fill="none" stroke="#999" stroke-width="1"/>
  <text x="40" y="55" font-family="Helvetica, Arial" font-size="20" font-weight="bold" fill="#1c2b1c">Mountain Spring Podiatry</text>
  <text x="40" y="78" font-family="Helvetica, Arial" font-size="14" fill="#444">Point-of-Use Device Compliance Form (SYNTHETIC — no PHI)</text>
  <line x1="40" y1="92" x2="680" y2="92" stroke="#ccc" stroke-width="1"/>
  <text x="40" y="118" font-family="Helvetica, Arial" font-size="12" fill="#222">Center: Northern Virginia Surgery Center      Procedure date: 2026-09-24</text>
  <text x="40" y="136" font-family="Helvetica, Arial" font-size="12" fill="#222">Patient ref: MSP-NOVA-1550      Form ID: PU-2026-0914</text>
  
    <g transform="translate(40 150)">
      <rect x="0" y="0" width="205.33333333333334" height="78" rx="5" fill="#fffdf5" stroke="#c9c2ad" stroke-width="1.5"/>
      <text x="8" y="20" font-family="Helvetica, Arial" font-size="11" font-weight="bold" fill="#111">Hernia mesh 15cm</text>
      <rect x="8.00" y="32" width="4.21" height="28" fill="#111"/><rect x="29.04" y="32" width="4.21" height="28" fill="#111"/><rect x="45.87" y="32" width="12.62" height="28" fill="#111"/><rect x="75.32" y="32" width="8.41" height="28" fill="#111"/><rect x="100.56" y="32" width="8.41" height="28" fill="#111"/><rect x="130.01" y="32" width="12.62" height="28" fill="#111"/><rect x="163.67" y="32" width="4.21" height="28" fill="#111"/><rect x="180.50" y="32" width="4.21" height="28" fill="#111"/>
      <text x="102.66666666666667" y="70" text-anchor="middle" font-family="Courier, monospace" font-size="8" fill="#555">0100841112223330</text>
    </g>
    <g transform="translate(257.33333333333337 150)">
      <rect x="0" y="0" width="205.33333333333334" height="78" rx="5" fill="#fffdf5" stroke="#c9c2ad" stroke-width="1.5"/>
      <text x="8" y="20" font-family="Helvetica, Arial" font-size="11" font-weight="bold" fill="#111">Laparoscopic clip applier</text>
      <rect x="8.00" y="32" width="4.21" height="28" fill="#111"/><rect x="29.04" y="32" width="4.21" height="28" fill="#111"/><rect x="45.87" y="32" width="12.62" height="28" fill="#111"/><rect x="75.32" y="32" width="4.21" height="28" fill="#111"/><rect x="92.15" y="32" width="4.21" height="28" fill="#111"/><rect x="113.19" y="32" width="8.41" height="28" fill="#111"/><rect x="138.43" y="32" width="12.62" height="28" fill="#111"/><rect x="172.09" y="32" width="12.62" height="28" fill="#111"/>
      <text x="102.66666666666667" y="70" text-anchor="middle" font-family="Courier, monospace" font-size="8" fill="#555">0100846667778880</text>
    </g>
    <g transform="translate(474.6666666666667 150)">
      <rect x="0" y="0" width="205.33333333333334" height="78" rx="5" fill="#fffdf5" stroke="#c9c2ad" stroke-width="1.5"/>
      <text x="8" y="20" font-family="Helvetica, Arial" font-size="11" font-weight="bold" fill="#111">Gauze sponges</text>
      <rect x="8.00" y="32" width="4.21" height="28" fill="#111"/><rect x="29.04" y="32" width="4.21" height="28" fill="#111"/><rect x="45.87" y="32" width="12.62" height="28" fill="#111"/><rect x="75.32" y="32" width="12.62" height="28" fill="#111"/><rect x="108.98" y="32" width="12.62" height="28" fill="#111"/><rect x="134.22" y="32" width="4.21" height="28" fill="#111"/><rect x="151.05" y="32" width="8.41" height="28" fill="#111"/><rect x="176.30" y="32" width="8.41" height="28" fill="#111"/>
      <text x="102.66666666666667" y="70" text-anchor="middle" font-family="Courier, monospace" font-size="8" fill="#555">0100842223334440</text>
    </g>
  <text x="40" y="920" font-family="Helvetica, Arial" font-size="10" fill="#888">Staff affix device labels above after each procedure. Scan and submit to inventory manager.</text>
</svg>